HIERARCHY
ROOT Hips
{
 OFFSET 0.000000 0.000000 0.000000
 CHANNELS 6 Xposition Yposition Zposition Yrotation Xrotation Zrotation
 JOINT Chest
 {
  OFFSET 0.000000 9.585900 0.002600
  CHANNELS 3 Yrotation Xrotation Zrotation
  JOINT Chest2
  {
   OFFSET 0.000000 9.601200 -0.005300
   CHANNELS 3 Yrotation Xrotation Zrotation
   JOINT Chest3
   {
    OFFSET 0.000000 9.561800 0.000000
    CHANNELS 3 Yrotation Xrotation Zrotation
    JOINT Chest4
    {
     OFFSET 0.000000 9.552100 0.000000
     CHANNELS 3 Yrotation Xrotation Zrotation
     JOINT Neck
     {
      OFFSET 0.000000 14.453000 0.000000
      CHANNELS 3 Yrotation Xrotation Zrotation
      JOINT Head
      {
       OFFSET 0.000000 8.936500 -0.011300
       CHANNELS 3 Yrotation Xrotation Zrotation
       End Site
       {
        OFFSET 0.000000 17.073600 -0.006000
       }
      }
     }
     JOINT RightCollar
     {
      OFFSET -2.921100 9.558500 0.000000
      CHANNELS 3 Yrotation Xrotation Zrotation
      JOINT RightShoulder
      {
       OFFSET -13.519700 0.000000 0.000000
       CHANNELS 3 Yrotation Xrotation Zrotation
       JOINT RightElbow
       {
        OFFSET 0.000000 -29.696600 0.000000
        CHANNELS 3 Yrotation Xrotation Zrotation
        JOINT RightWrist
        {
         OFFSET 0.000000 -24.004700 0.000000
         CHANNELS 3 Yrotation Xrotation Zrotation
         End Site
         {
          OFFSET 0.000000 -17.728500 0.000000
         }
        }
       }
      }
     }
     JOINT LeftCollar
     {
      OFFSET 2.921100 9.558500 0.000000
      CHANNELS 3 Yrotation Xrotation Zrotation
      JOINT LeftShoulder
      {
       OFFSET 13.519700 0.000000 0.000000
       CHANNELS 3 Yrotation Xrotation Zrotation
       JOINT LeftElbow
       {
        OFFSET 0.000000 -29.696600 0.000000
        CHANNELS 3 Yrotation Xrotation Zrotation
        JOINT LeftWrist
        {
         OFFSET 0.000000 -24.004700 0.000000
         CHANNELS 3 Yrotation Xrotation Zrotation
         End Site
         {
          OFFSET 0.000000 -17.728500 0.000000
         }
        }
       }
      }
     }
    }
   }
  }
 }
 JOINT RightHip
 {
  OFFSET -7.771700 -0.012900 -0.001300
  CHANNELS 3 Yrotation Xrotation Zrotation
  JOINT RightKnee
  {
   OFFSET 0.000000 -40.869800 0.001200
   CHANNELS 3 Yrotation Xrotation Zrotation
   JOINT RightAnkle
   {
    OFFSET 0.000000 -39.717900 0.002100
    CHANNELS 3 Yrotation Xrotation Zrotation
    JOINT RightToe
    {
     OFFSET 0.000000 -4.965400 11.033500
     CHANNELS 3 Yrotation Xrotation Zrotation
     End Site
     {
      OFFSET 0.000000 -1.423100 5.872300
     }
    }
   }
  }
 }
 JOINT LeftHip
 {
  OFFSET 7.771700 -0.012900 -0.001300
  CHANNELS 3 Yrotation Xrotation Zrotation
  JOINT LeftKnee
  {
   OFFSET 0.000000 -40.869800 0.001200
   CHANNELS 3 Yrotation Xrotation Zrotation
   JOINT LeftAnkle
   {
    OFFSET 0.000000 -39.717900 0.002100
    CHANNELS 3 Yrotation Xrotation Zrotation
    JOINT LeftToe
    {
     OFFSET 0.000000 -4.965400 11.033500
     CHANNELS 3 Yrotation Xrotation Zrotation
     End Site
     {
      OFFSET 0.000000 -1.423100 5.872300
     }
    }
   }
  }
 }
}
MOTION
Frames: 14
Frame Time: 0.008333
-12.965720 57.911185 66.698988 179.902160 -31.130750 0.977519 1.203536 19.869851 6.008149 0.088924 2.736130 0.663450 0.218635 4.457438 1.060846 1.381068 17.591653 4.414540 1.661071 15.574514 -1.391005 3.602510 -6.806594 -3.197035 4.993299 -1.021813 -2.184792 32.544733 -34.866858 -32.320882 118.491036 -68.862384 -63.793543 20.036771 -17.250678 -58.451514 -8.100889 -4.706140 -3.087459 -3.961700 -11.224779 14.494624 40.405530 -22.590203 -86.386338 7.496720 -6.473729 4.878632 7.356096 -40.474210 -5.974646 0.460612 66.888247 -1.049709 5.166065 6.786202 6.015666 -0.000590 0.327465 0.002053 -8.305528 -46.510751 -1.066246 28.842157 65.968738 30.080368 -12.841735 26.630933 -4.921403 -0.061455 -13.403296 -3.699249
-12.956068 57.892897 66.707121 179.868390 -31.086592 1.034588 1.168380 19.836923 5.969009 0.124164 2.731706 0.647542 0.218536 4.456258 1.060631 1.355377 17.584010 4.432568 1.693849 15.471306 -1.563375 3.730504 -6.988963 -3.534570 4.985127 -1.113603 -2.184388 32.555301 -34.683711 -32.296256 118.998474 -68.802021 -64.382883 20.157741 -17.181059 -58.509682 -8.117460 -4.761704 -3.072892 -4.092181 -11.201932 14.780567 40.313006 -22.631385 -86.588786 7.479142 -6.470656 4.862915 7.368364 -40.533746 -6.065557 0.541035 66.918724 -0.913303 5.211065 6.740149 5.943774 -0.010566 0.353144 -0.003805 -8.191129 -46.587197 -1.177022 29.048904 65.871049 30.373412 -13.104163 26.758248 -4.975855 0.098526 -13.473533 -3.792225
-12.939089 57.873485 66.717968 179.812857 -31.024027 1.046135 1.181787 19.786571 5.993685 0.123417 2.728924 0.647200 0.217562 4.452039 1.059905 1.368691 17.581887 4.417423 1.708288 15.365772 -1.715482 3.844572 -7.168973 -3.858001 4.971633 -1.205431 -2.177350 32.540550 -34.494823 -32.268759 119.576280 -68.753760 -65.066902 20.253838 -17.103512 -58.532753 -8.152302 -4.819389 -3.043222 -4.211722 -11.179556 15.047797 40.219429 -22.657374 -86.802274 7.467553 -6.461750 4.842056 7.391759 -40.610295 -6.086241 0.520325 66.929324 -0.866607 5.263485 6.714364 5.885304 -0.015998 0.336036 -0.007149 -8.026261 -46.700473 -1.290989 29.257075 65.800014 30.728439 -13.222397 26.973700 -4.915817 0.136735 -13.635916 -3.926892
-12.923520 57.855664 66.727599 179.772669 -30.972258 1.046001 1.177397 19.747762 6.014270 0.102749 2.730136 0.652832 0.238700 4.445502 1.052392 1.387902 17.578524 4.406826 1.715091 15.261745 -1.865296 3.946640 -7.349355 -4.163960 4.962548 -1.308950 -2.173004 32.495988 -34.280838 -32.230371 120.227978 -68.718989 -65.843112 20.331118 -17.021283 -58.540116 -8.190232 -4.878323 -3.015734 -4.319810 -11.158279 15.295555 40.125531 -22.669694 -87.023569 7.458815 -6.450870 4.820910 7.403096 -40.672530 -6.107263 0.492323 66.938509 -0.820161 5.318269 6.688113 5.827361 -0.021798 0.340568 -0.011618 -7.876882 -46.800353 -1.398919 29.469658 65.722890 31.082198 -13.344770 27.187145 -4.856877 0.176480 -13.792680 -4.057485
-12.910019 57.839657 66.735856 179.736542 -30.932595 1.046146 1.134713 19.730956 6.020324 0.158912 2.718955 0.644182 0.186390 4.448716 1.059385 1.421265 17.571391 4.398468 1.729163 15.161140 -2.020440 4.038368 -7.531658 -4.450098 4.973729 -1.419649 -2.180212 32.415898 -34.041746 -32.179986 120.954506 -68.698012 -66.709619 20.391291 -16.940601 -58.545026 -8.214567 -4.935964 -3.000168 -4.418630 -11.143283 15.526143 40.033927 -22.666181 -87.253258 7.449355 -6.441955 4.798810 7.420652 -40.718680 -6.127492 0.510365 66.947361 -0.739538 5.344346 6.659075 5.783745 -0.027923 0.356996 -0.018942 -7.766907 -46.878691 -1.472303 29.678395 65.641504 31.395354 -13.483478 27.379741 -4.810146 0.232307 -13.927722 -4.177774
-12.899614 57.825909 66.742029 179.702888 -30.909989 1.056768 1.107396 19.726935 6.008355 0.168034 2.711226 0.645228 0.180637 4.452220 1.055250 1.403918 17.567624 4.393688 1.774608 15.060286 -2.171080 4.123822 -7.716529 -4.718289 5.019192 -1.535387 -2.192668 32.303081 -33.782160 -32.117810 121.757354 -68.688520 -67.664209 20.448919 -16.864509 -58.563971 -8.201029 -4.994228 -2.989126 -4.515096 -11.133848 15.742294 39.943759 -22.651931 -87.495819 7.434996 -6.426727 4.767129 7.455712 -40.743527 -6.170090 0.522780 66.958917 -0.656914 5.368225 6.624725 5.740639 -0.033518 0.374366 -0.025132 -7.699077 -46.924256 -1.512117 29.879378 65.550345 31.652972 -13.650375 27.537086 -4.784801 0.313150 -14.026873 -4.283483
-12.895824 57.815316 66.744564 179.680894 -30.915263 1.097887 1.068439 19.751759 5.959770 0.127285 2.720479 0.642494 0.223763 4.438935 1.052603 1.409276 17.563505 4.387652 1.790689 14.955431 -2.300834 4.207739 -7.902683 -4.972455 5.031821 -1.647522 -2.198994 32.160993 -33.515599 -32.043439 122.637648 -68.680549 -68.697749 20.516175 -16.788543 -58.617137 -8.212043 -5.054220 -2.968985 -4.615330 -11.125199 15.942422 39.854765 -22.647254 -87.748539 7.414495 -6.399604 4.718038 7.521578 -40.739612 -6.275402 0.468955 66.986097 -0.620659 5.424161 6.591175 5.691344 -0.045814 0.347616 -0.025360 -7.602284 -46.947259 -1.605366 30.068340 65.461261 31.893843 -13.831359 27.648772 -4.775221 0.410689 -14.078646 -4.378879
-12.879042 57.800390 66.755054 179.647668 -30.866481 1.067087 1.063016 19.722706 5.990955 0.154341 2.711969 0.642340 0.212436 4.439592 1.050891 1.395497 17.560026 4.379967 1.809264 14.851054 -2.423294 4.294053 -8.088026 -5.214311 5.046771 -1.744026 -2.212388 31.994053 -33.251607 -31.955384 123.588549 -68.664735 -69.791039 20.596800 -16.711373 -58.713528 -8.213217 -5.110136 -2.953620 -4.719057 -11.117270 16.125442 39.770042 -22.672799 -88.003126 7.390469 -6.368060 4.656710 7.549512 -40.792886 -6.283806 0.403929 66.984905 -0.584290 5.467573 6.583564 5.637661 -0.047524 0.356810 -0.028202 -7.485420 -47.046329 -1.655574 30.213705 65.406508 32.166275 -13.945390 27.873362 -4.712347 0.447999 -14.244130 -4.501638
-12.864698 57.784443 66.768112 179.550413 -30.800627 1.086423 1.115551 19.673199 6.006797 0.172283 2.707565 0.642112 0.224294 4.435481 1.050236 1.379862 17.558977 4.375551 1.801639 14.745534 -2.532409 4.382897 -8.272115 -5.444646 5.027741 -1.827859 -2.227350 31.808366 -32.993807 -31.851113 124.594762 -68.638862 -70.919520 20.696969 -16.634601 -58.853965 -8.237325 -5.160308 -2.936271 -4.826323 -11.110687 16.291053 39.693551 -22.735772 -88.255904 7.364706 -6.330859 4.592268 7.635580 -40.860298 -6.295884 0.332144 66.976593 -0.586913 5.504058 6.547534 5.605157 -0.050597 0.380430 -0.032206 -7.347276 -47.144127 -1.686838 30.327834 65.347731 32.372353 -14.058141 28.061091 -4.658546 0.482797 -14.385979 -4.614615
-12.851045 57.772547 66.774696 179.510792 -30.782483 1.085082 1.142220 19.660396 6.023883 0.098394 2.722632 0.639132 0.252909 4.425183 1.045573 1.358074 17.553971 4.366982 1.837582 14.642481 -2.644673 4.471147 -8.456723 -5.664857 5.043891 -1.894103 -2.259295 31.610406 -32.744006 -31.733215 125.635053 -68.598911 -72.060031 20.817432 -16.556887 -59.032527 -8.183700 -5.182113 -2.943469 -4.967388 -11.124579 16.449318 39.626754 -22.832653 -88.508797 7.340654 -6.283589 4.530627 7.676510 -40.883496 -6.330132 0.250756 66.986342 -0.571713 5.558073 6.538379 5.544949 -0.038850 0.343364 -0.026477 -7.276147 -47.188801 -1.714782 30.423292 65.291912 32.539255 -14.159048 28.224626 -4.611850 0.527991 -14.492591 -4.724712
-12.837555 57.761312 66.780062 179.492595 -30.774866 1.078604 1.057661 19.689942 6.009217 0.125341 2.710719 0.635958 0.220441 4.423935 1.042075 1.375407 17.542280 4.351045 1.874376 14.538515 -2.753440 4.558737 -8.643109 -5.875421 5.092336 -1.917508 -2.287869 31.374394 -32.516753 -31.636059 126.702650 -68.542584 -73.207795 20.958248 -16.475648 -59.238538 -8.123886 -5.201487 -2.955265 -5.114363 -11.135447 16.590095 39.567043 -22.953209 -88.759197 7.320651 -6.232683 4.473537 7.724664 -40.886749 -6.366075 0.242697 66.994770 -0.505956 5.581578 6.500826 5.517673 -0.056032 0.337436 -0.027505 -7.228770 -47.225717 -1.745924 30.502483 65.243228 32.684074 -14.239610 28.389871 -4.564856 0.573032 -14.601560 -4.833928
-12.824096 57.747675 66.789014 179.434332 -30.743356 1.096513 1.033994 19.683020 5.998320 0.123352 2.706571 0.633377 0.217084 4.417573 1.037843 1.378696 17.533759 4.337179 1.897550 14.432524 -2.852551 4.646591 -8.831433 -6.076792 5.055719 -1.976860 -2.328803 31.165843 -32.263991 -31.492365 127.800361 -68.474790 -74.367464 21.122102 -16.386513 -59.456801 -8.157327 -5.263223 -2.937654 -5.180878 -11.101551 16.690829 39.509690 -23.084369 -89.003066 7.300945 -6.188539 4.420567 7.810997 -40.920659 -6.401370 0.223700 67.004099 -0.457346 5.573409 6.471876 5.487564 -0.045617 0.353154 -0.028847 -7.160235 -47.288944 -1.769955 30.567882 65.203125 32.807075 -14.300108 28.564925 -4.509330 0.618361 -14.719253 -4.949589
-12.809354 57.733329 66.798549 179.312215 -30.708314 1.141438 1.114572 19.658671 6.006558 0.122454 2.704789 0.632333 0.182710 4.414186 1.035382 1.363930 17.525188 4.324858 1.921496 14.326292 -2.947417 4.734715 -9.020236 -6.270810 5.010385 -2.031011 -2.374827 30.948758 -32.011090 -31.344180 128.914648 -68.397225 -75.528857 21.303007 -16.283287 -59.670234 -8.167298 -5.295329 -2.931925 -5.278574 -11.081311 16.787192 39.459333 -23.214624 -89.242933 7.272588 -6.150587 4.369483 7.938874 -40.959965 -6.444632 0.245038 67.005676 -0.351744 5.581567 6.439412 5.442031 -0.043004 0.381793 -0.030967 -7.058206 -47.357234 -1.772667 30.628234 65.195779 32.903253 -14.292555 28.713429 -4.397012 0.627412 -14.826708 -5.081708
-12.797301 57.718600 66.808206 179.267511 -30.675015 1.162863 1.123092 19.635136 5.997407 0.074441 2.705567 0.630659 0.193882 4.405096 1.031052 1.388800 17.523762 4.317151 1.907893 14.209526 -3.031767 4.822102 -9.206307 -6.458001 4.997696 -2.050205 -2.396206 30.677258 -31.775599 -31.244007 130.025667 -68.310826 -76.676793 21.482321 -16.145774 -59.865923 -8.205724 -5.316990 -2.926837 -5.392480 -11.060897 16.879454 39.425228 -23.340361 -89.479475 7.239542 -6.110256 4.322840 8.016218 -40.998964 -6.505169 0.247034 67.021230 -0.270464 5.581304 6.414514 5.401907 -0.027752 0.379578 -0.033488 -7.018539 -47.411648 -1.783635 30.641238 65.148304 32.961006 -14.384901 28.876710 -4.381500 0.681975 -14.930306 -5.177307
